<?xml version="1.0" standalone="no"?>
<!DOCTYPE svg PUBLIC "-//W3C//DTD SVG 20010904//EN"
 "http://www.w3.org/TR/2001/REC-SVG-20010904/DTD/svg10.dtd">
<svg version="1.0" xmlns="http://www.w3.org/2000/svg"
 width="512.000000pt" height="512.000000pt" viewBox="0 0 512.000000 512.000000"
 preserveAspectRatio="xMidYMid meet">
<metadata>
Created by potrace 1.14, written by Peter Selinger 2001-2017
</metadata>
<g transform="translate(0.000000,512.000000) scale(0.100000,-0.100000)"
fill="#000000" stroke="none">
<path d="M2399 5116 c-2 -2 -35 -6 -74 -10 -38 -3 -81 -8 -95 -10 -14 -3 -43
-7 -65 -10 -106 -15 -263 -52 -387 -92 -975 -315 -1661 -1168 -1767 -2194 -9
-93 -7 -448 4 -520 42 -291 93 -481 190 -715 90 -217 241 -467 392 -648 44
-51 274 -279 327 -322 26 -22 62 -52 80 -66 59 -49 262 -177 366 -232 249
-132 591 -240 855 -272 28 -4 61 -9 75 -11 14 -3 113 -7 220 -9 306 -4 557 34
845 130 781 259 1375 859 1630 1645 89 276 124 510 120 815 -3 205 -10 282
-46 464 -121 610 -489 1193 -980 1550 -46 34 -88 65 -94 69 -28 22 -200 123
-270 159 -195 100 -448 189 -645 227 -14 2 -47 9 -75 15 -27 5 -77 13 -110 16
-33 4 -69 9 -80 12 -23 5 -411 13 -416 9z m406 -351 c115 -16 166 -24 175 -30
4 -2 7 -119 7 -260 0 -289 10 -264 -95 -240 -94 22 -182 30 -337 30 -157 0
-233 -8 -345 -34 l-77 -18 1 261 1 260 35 8 c39 8 91 16 190 27 70 8 379 6
445 -4z m-1768 -791 c54 -31 118 -68 143 -82 91 -50 180 -104 180 -109 0 -2
-30 -37 -66 -77 -143 -158 -273 -374 -340 -563 -16 -46 -31 -83 -34 -83 -7 0
-422 240 -434 250 -15 15 88 246 172 385 93 155 246 349 268 341 8 -3 58 -31
111 -62z m3200 32 c44 -47 161 -208 212 -289 48 -78 136 -253 171 -341 22 -56
23 -59 6 -72 -34 -24 -426 -247 -429 -243 -2 2 -18 45 -36 94 -72 194 -196
399 -337 553 -36 40 -63 76 -60 80 9 9 430 251 437 252 3 0 20 -15 36 -34z
m-1482 -90 c17 -4 56 -11 88 -17 75 -13 242 -71 327 -114 304 -153 561 -440
674 -753 61 -170 80 -284 81 -472 0 -179 -19 -296 -76 -455 -164 -466 -572
-808 -1068 -896 -95 -18 -317 -19 -421 -3 -192 30 -384 103 -544 208 -105 68
-130 88 -238 198 -202 205 -333 473 -375 771 -10 67 -10 286 0 357 11 80 42
205 72 290 132 366 448 683 815 814 93 34 216 64 295 72 33 4 62 8 64 10 6 5
274 -4 306 -10z m-1813 -1896 c67 -209 192 -426 338 -589 36 -40 36 -43 7 -57
-12 -6 -110 -62 -217 -124 -107 -62 -198 -114 -201 -116 -9 -5 -128 156 -194
261 -84 135 -206 394 -216 463 -4 20 22 38 221 152 133 76 226 124 228 117 2
-7 17 -55 34 -107z m3505 -14 c253 -146 232 -113 173 -264 -66 -171 -171 -356
-297 -524 l-66 -87 -41 23 c-23 13 -97 56 -166 96 -69 40 -145 84 -170 98 -76
41 -76 38 1 132 84 101 168 234 222 349 46 98 107 265 107 293 0 10 3 17 8 15
4 -2 107 -61 229 -131z m-2229 -1120 c7 -4 22 -7 152 -25 96 -14 371 -6 470
14 47 9 99 19 116 22 l31 5 -1 -258 -1 -258 -27 -7 c-159 -42 -544 -45 -758
-6 l-65 12 -1 258 -1 258 39 -5 c22 -3 42 -8 46 -10z"/>
<path d="M2498 3602 c-41 -25 -59 -72 -59 -152 l0 -69 -57 -16 c-202 -59 -349
-205 -368 -368 -4 -28 -7 -58 -9 -65 -5 -41 19 -141 47 -194 61 -114 188 -202
409 -281 212 -77 280 -135 274 -234 -6 -93 -90 -145 -235 -147 -97 -1 -151 6
-230 29 -93 27 -133 29 -173 10 -40 -19 -77 -81 -77 -130 0 -41 37 -111 70
-135 32 -23 154 -55 245 -65 95 -10 90 -6 91 -88 2 -84 18 -118 68 -144 41
-21 90 -18 127 7 43 31 53 56 55 145 1 44 3 82 3 85 1 3 26 11 56 18 173 40
308 151 370 302 25 62 30 219 9 291 -31 105 -107 195 -221 260 -29 17 -120 57
-200 90 -171 69 -247 112 -274 155 -40 66 -15 139 61 177 36 18 63 22 139 23
52 0 122 -5 155 -13 110 -25 141 -26 178 -9 41 20 78 80 78 127 0 51 -35 112
-78 136 -39 22 -138 43 -212 46 l-45 2 -5 72 c-5 77 -26 117 -71 140 -34 18
-89 15 -121 -5z"/>
</g>
</svg>
